<?xml version="1.0" encoding="UTF-8"?>
<svg viewBox="0 0 58.716042 43.822392" xmlns="http://www.w3.org/2000/svg">
 <g transform="matrix(.15547 0 0 .15547 -37.952 -29.035)" fill="#fea" stroke="#000" stroke-width="6.4319">
  <path d="m247.32 208.72c5.4188 328.2 241.81 329.15 234.29 0-57.143 42.857-168.57 40-234.29 0z" display="block"/>
  <path d="m319.9 369.92c6.6645 55.004 90.637 47.359 93.303 0" display="block"/>
  <path d="m390.54 344.59c3.6655 25.992-59.981 29.324-51.983-11.996 6.4076-33.106-37.321-73.31-86.639-73.31" display="block"/>
 </g>
 <g transform="matrix(.14776,.048365,-.048365,.14776,-2.8511,-42.302)" fill="#fea" stroke="#000" stroke-width="6.4319">
  <path d="m247.32 208.72c5.4188 328.2 241.81 329.15 234.29 0-57.143 42.857-168.57 40-234.29 0z" display="block"/>
  <path d="m319.9 369.92c6.6645 55.004 90.637 47.359 93.303 0" display="block"/>
  <path d="m390.54 344.59c3.6655 25.992-59.981 29.324-51.983-11.996 6.4076-33.106-37.321-73.31-86.639-73.31" display="block"/>
 </g>
</svg>
